[Header]
FileType HTR
DataType HTRS
FileVersion 1
NumSegments 22
NumFrames 7
DataFrameRate 24
EulerRotationOrder ZYX
CalibrationUnits mm
RotationUnits Degrees
GlobalAxisofGravity Y
BoneLengthAxis Y
ScaleFactor 1.0
[SegmentNames&Hierarchy]
reference	GLOBAL
Hips	reference
Spine	Hips
Spine1	Spine
Neck	Spine1
Head	Neck
LeftShoulder	Spine1
LeftArm	LeftShoulder
LeftForeArm	LeftArm
LeftHand	LeftForeArm
RightShoulder	Spine1
RightArm	RightShoulder
RightForeArm	RightArm
RightHand	RightForeArm
LeftUpLeg	Hips
LeftLeg	LeftUpLeg
LeftFoot	LeftLeg
LeftToeBase	LeftFoot
RightUpLeg	Hips
RightLeg	RightUpLeg
RightFoot	RightLeg
RightToeBase	RightFoot
[BasePosition]
reference	0	0	0	0	0	0	1
Hips	0	0	0	0	0	0	1
Spine	0	0	0	0	-0	90	1
Spine1	0	0	0	0	0	0	1
Neck	0	0	0	-7.352327771	-7.352327771	90	1
Head	0	0	0	0	-0	90	1
LeftShoulder	0	0	0	0	0	0	1
LeftArm	0	0	0	0	0	0	1
LeftForeArm	0	0	0	0	0	0	1
LeftHand	0	0	0	0	0	0	1
RightShoulder	0	0	0	0	-0	180	1
RightArm	0	0	0	0	-0	180	1
RightForeArm	0	0	0	0	-0	180	1
RightHand	0	0	0	0	-0	180	1
LeftUpLeg	0	0	0	0	-0	-90	1
LeftLeg	0	0	0	0	-0	-90	1
LeftFoot	0	0	0	66.57146043	-66.57146043	-90	1
LeftToeBase	0	0	0	0	-90	0	1
RightUpLeg	0	0	0	0	-0	-90	1
RightLeg	0	0	0	0	-0	-90	1
RightFoot	0	0	0	66.57146043	-66.57146043	-90	1
RightToeBase	0	0	0	0	-90	0	1
[reference]
77	0	0	0	0	-0	0	1.0
78	0	0	0	0	-0	0	1.0
79	0	0	0	0	-0	0	1.0
80	0	0	0	0	-0	0	1.0
81	0	0	0	0	-0	0	1.0
82	0	0	0	0	-0	0	1.0
83	0	0	0	0	-0	0	1.0
[Hips]
77	15.06201839	8.459206581	2.398623943	-7.670556545	-101.9126892	22.06776237	1.0
78	15.33744621	8.052588463	2.414148808	-12.46655369	-99.65353394	27.08454895	1.0
79	15.51409721	8.115429878	2.428760052	-26.26126099	-97.13948059	40.93495178	1.0
80	15.72561646	7.886459827	2.378659964	-62.97404861	-100.8466721	77.95096588	1.0
81	15.77000046	7.886459827	2.378659964	-59.1796875	-101.2320862	74.37985992	1.0
82	15.77000046	7.886459827	2.378659964	-59.1796875	-101.2320862	74.37985992	1.0
83	15.77000046	7.886459827	2.378659964	-59.1796875	-101.2320862	74.37985992	1.0
[Spine]
77	0	0.7457100153	0	-12.30991077	-3.762357473	-105.5888519	1.0
78	0	0.7457100153	0	-14.74373913	-0.9694737196	-84.94507599	1.0
79	0	0.7457100153	0	-6.792359352	-11.73213005	-89.50285339	1.0
80	0	0.7457100153	0	-5.625680923	-13.28848267	-85.28294373	1.0
81	0	0.7457100153	0	-7.049686909	-10.81158638	-82.79398346	1.0
82	0	0.7457100153	0	-7.049686909	-10.81158638	-82.79398346	1.0
83	0	0.7457100153	0	-7.049686909	-10.81158638	-82.79398346	1.0
[Spine1]
77	0	2.140589952	0	8.012042046	-4.486450672	25.64034271	1.0
78	0	2.140589952	0	18.11597443	0.02764537372	-0.3760740459	1.0
79	0	2.140589952	0	-5.239294529	-15.04688835	70.22480774	1.0
80	0	2.140589952	0	9.00538826	-0.1580495983	9.747792244	1.0
81	0	2.140589952	0	9.184987068	-0.1042509452	7.07016325	1.0
82	0	2.140589952	0	9.184987068	-0.1042509452	7.07016325	1.0
83	0	2.140589952	0	9.184987068	-0.1042509452	7.07016325	1.0
[Neck]
77	0	2.32246995	0	-35.21046829	22.64497185	-94.14618683	1.0
78	0	2.32246995	0	-35.21046829	22.64497185	-94.14618683	1.0
79	0	2.32246995	0	-35.21046829	22.64497185	-94.14618683	1.0
80	0	2.32246995	0	-35.21046829	22.64497185	-94.14618683	1.0
81	0	2.32246995	0	-35.21046829	22.64497185	-94.14618683	1.0
82	0	2.32246995	0	-35.21046829	22.64497185	-94.14618683	1.0
83	0	2.32246995	0	-35.21046829	22.64497185	-94.14618683	1.0
[Head]
77	0	1.409579992	0.1818799973	-83.78923035	-2.346042871	-99.5619278	1.0
78	0	1.409579992	0.1818799973	-83.78923035	-2.346042871	-99.5619278	1.0
79	0	1.409579992	0.1818799973	-83.78923035	-2.346042871	-99.5619278	1.0
80	0	1.409579992	0.1818799973	-83.78923035	-2.346042871	-99.5619278	1.0
81	0	1.409579992	0.1818799973	-83.78923035	-2.346042871	-99.5619278	1.0
82	0	1.409579992	0.1818799973	-83.78923035	-2.346042871	-99.5619278	1.0
83	0	1.409579992	0.1818799973	-83.78923035	-2.346042871	-99.5619278	1.0
[LeftShoulder]
77	0.3668199778	1.946700096	-0.02662999928	-10.10444641	-3.307272911	-0.06279531866	1.0
78	0.3668199778	1.946700096	-0.02662999928	-13.81765747	-1.792274594	-2.800717115	1.0
79	0.3668199778	1.946700096	-0.02662999928	-13.81765747	-1.792274594	-2.800717115	1.0
80	0.3668199778	1.946700096	-0.02662999928	-13.81765747	-1.792274594	-2.800717115	1.0
81	0.3668199778	1.946700096	-0.02662999928	-13.81765747	-1.792274594	-2.800717115	1.0
82	0.3668199778	1.946700096	-0.02662999928	-13.81765747	-1.792274594	-2.800717115	1.0
83	0.3668199778	1.946700096	-0.02662999928	-13.81765747	-1.792274594	-2.800717115	1.0
[LeftArm]
77	1.140689969	0	0	-0.4909540713	-9.426990509	-64.81741333	1.0
78	1.140689969	0	0	-0.8488616347	-7.302742481	-62.42086029	1.0
79	1.140689969	0	0	0.4077168405	-12.50660038	-69.40866852	1.0
80	1.140689969	0	0	66.35923767	-1.138517141	-92.6235199	1.0
81	1.140689969	0	0	66.68769073	-8.521749496	-96.47373199	1.0
82	1.140689969	0	0	67.04821777	-11.89423847	-98.49960327	1.0
83	1.140689969	0	0	67.15324402	-12.61983967	-98.99473572	1.0
[LeftForeArm]
77	2.749800205	0	0	30.9979229	-14.06217575	-79.14189911	1.0
78	2.749800205	0	0	71.21144867	-40.33527756	-109.2749405	1.0
79	2.749800205	0	0	31.77284813	-21.92642593	-89.12770844	1.0
80	2.749800205	0	0	111.3443756	-129.9231415	-85.79367065	1.0
81	2.749800205	0	0	97.31759644	-129.6945038	-70.40155792	1.0
82	2.749800205	0	0	92.50980377	-127.1404114	-67.15704346	1.0
83	2.749800205	0	0	84.43569946	-125.0987549	-62.03271103	1.0
[LeftHand]
77	2.295179844	0	0	13.6011467	-30.80766869	22.59629059	1.0
78	2.295179844	0	0	16.55311394	1.87607193	4.172037601	1.0
79	2.295179844	0	0	-18.53499985	-58.57946777	49.04047394	1.0
80	2.295179844	0	0	-11.99706841	-16.87210846	-21.84337807	1.0
81	2.295179844	0	0	-13.21530437	-7.413969517	-32.59111786	1.0
82	2.295179844	0	0	-11.66733551	-7.08955574	-34.09976196	1.0
83	2.295179844	0	0	-11.60557842	-7.54602766	-33.94249344	1.0
[RightShoulder]
77	-0.3601199985	1.946700096	-0.02662999928	-0.1833736449	0.03522789478	167.4714966	1.0
78	-0.3601199985	1.946700096	-0.02662999928	-18.0157032	-17.36696625	176.4389954	1.0
79	-0.3601199985	1.946700096	-0.02662999928	-67.24487305	-24.34656525	280.0198975	1.0
80	-0.3601199985	1.946700096	-0.02662999928	-31.36026764	-17.6679039	234.1041565	1.0
81	-0.3601199985	1.946700096	-0.02662999928	-16.78561401	-12.3116293	218.4373322	1.0
82	-0.3601199985	1.946700096	-0.02662999928	-16.78561401	-12.3116293	218.4373322	1.0
83	-0.3601199985	1.946700096	-0.02662999928	-16.78561401	-12.3116293	218.4373322	1.0
[RightArm]
77	-1.140689969	0	0	-10.0041132	1.047776341	-103.0283508	1.0
78	-1.140689969	0	0	-11.11413765	4.673758507	-100.4529114	1.0
79	-1.140689969	0	0	2.987418652	15.81865883	-92.02201843	1.0
80	-1.140689969	0	0	-1.183177471	13.00157928	-96.4538269	1.0
81	-1.140689969	0	0	-7.127570152	11.44058323	-104.0076752	1.0
82	-1.140689969	0	0	-7.127570152	11.44058323	-104.0076752	1.0
83	-1.140689969	0	0	-7.127570152	11.44058323	-104.0076752	1.0
[RightForeArm]
77	-2.749800205	0	0	74.50362396	47.865345	252.3438721	1.0
78	-2.749800205	0	0	81.74205017	36.21139908	261.3955078	1.0
79	-2.749800205	0	0	145.2142334	106.6992493	167.0764771	1.0
80	-2.749800205	0	0	110.1601181	118.4797363	259.0871582	1.0
81	-2.749800205	0	0	128.4025879	132.8919067	295.8120117	1.0
82	-2.749800205	0	0	128.4025879	132.8919067	295.8120117	1.0
83	-2.749800205	0	0	128.4025879	132.8919067	295.8120117	1.0
[RightHand]
77	-2.295179844	0	0	38.58688354	19.08039856	183.2743378	1.0
78	-2.295179844	0	0	56.00498962	21.64164734	192.4580383	1.0
79	-2.295179844	0	0	49.72394943	44.88342285	278.1960449	1.0
80	-2.295179844	0	0	-11.27132607	38.26326752	155.8454132	1.0
81	-2.295179844	0	0	1.930297852	10.76391602	151.8256378	1.0
82	-2.295179844	0	0	1.930297852	10.76391602	151.8256378	1.0
83	-2.295179844	0	0	1.930297852	10.76391602	151.8256378	1.0
[LeftUpLeg]
77	0.9094099998	0	0	-33.84737015	3.622706652	97.24713898	1.0
78	0.9094099998	0	0	-58.72380829	15.44499397	100.3779297	1.0
79	0.9094099998	0	0	-55.83757019	14.38588333	88.41149139	1.0
80	0.9094099998	0	0	-39.51465988	20.77104378	82.60463715	1.0
81	0.9094099998	0	0	-37.24816132	17.00124359	91.0721283	1.0
82	0.9094099998	0	0	-33.4705162	5.853116989	102.4092941	1.0
83	0.9094099998	0	0	-27.23464203	6.595664024	100.9613113	1.0
[LeftLeg]
77	0	-4.498080254	0	31.9692955	-2.277344942	68.85858154	1.0
78	0	-4.498080254	0	100.0901642	40.92042542	118.4421844	1.0
79	0	-4.498080254	0	70.72911072	17.21923828	56.29494476	1.0
80	0	-4.498080254	0	118.0868225	22.82613373	100.8721848	1.0
81	0	-4.498080254	0	107.8667984	45.6689415	67.2996521	1.0
82	0	-4.498080254	0	108.0267715	45.52898026	67.49806976	1.0
83	0	-4.498080254	0	108.0267715	45.52898026	67.49806976	1.0
[LeftFoot]
77	0	-3.729400158	0	-47.35020447	195.8213959	18.17625427	1.0
78	0	-3.729400158	0	-9.519123077	23.79012299	84.04814148	1.0
79	0	-3.729400158	0	5.937542439	51.86826706	95.00392151	1.0
80	0	-3.729400158	0	-15.50609875	7.790937424	54.99180603	1.0
81	0	-3.729400158	0	-20.65499687	-6.023484707	43.58582306	1.0
82	0	-3.729400158	0	-20.65499687	-6.023484707	43.58582306	1.0
83	0	-3.729400158	0	-20.65499687	-6.023484707	43.58582306	1.0
[LeftToeBase]
77	0	-0.5911099911	1.364109993	0	0	0	1.0
78	0	-0.5911099911	1.364109993	0	0	0	1.0
79	0	-0.5911099911	1.364109993	0	0	0	1.0
80	0	-0.5911099911	1.364109993	0	0	0	1.0
81	0	-0.5911099911	1.364109993	0	0	0	1.0
82	0	-0.5911099911	1.364109993	0	0	0	1.0
83	0	-0.5911099911	1.364109993	0	0	0	1.0
[RightUpLeg]
77	-0.9094099998	0	0	-17.0775013	-5.808022499	102.5898209	1.0
78	-0.9094099998	0	0	-19.26802635	-8.529720306	102.8260956	1.0
79	-0.9094099998	0	0	-17.52881622	-11.3735199	106.5491333	1.0
80	-0.9094099998	0	0	-14.79070377	-14.59267044	112.6937027	1.0
81	-0.9094099998	0	0	-14.79070377	-14.59267044	112.6937027	1.0
82	-0.9094099998	0	0	-14.79070377	-14.59267044	112.6937027	1.0
83	-0.9094099998	0	0	-14.79070377	-14.59267044	112.6937027	1.0
[RightLeg]
77	0	-4.498080254	0	-11.01363277	6.568191528	109.4690094	1.0
78	0	-4.498080254	0	-11.01363277	6.568191528	109.4690094	1.0
79	0	-4.498080254	0	-11.01363277	6.568191528	109.4690094	1.0
80	0	-4.498080254	0	-11.01363277	6.568191528	109.4690094	1.0
81	0	-4.498080254	0	-11.01363277	6.568191528	109.4690094	1.0
82	0	-4.498080254	0	-11.01363277	6.568191528	109.4690094	1.0
83	0	-4.498080254	0	-11.01363277	6.568191528	109.4690094	1.0
[RightFoot]
77	0	-3.729400158	0	69.84781647	60.97349167	121.5175705	1.0
78	0	-3.729400158	0	69.84781647	60.97349167	121.5175705	1.0
79	0	-3.729400158	0	69.84781647	60.97349167	121.5175705	1.0
80	0	-3.729400158	0	69.84781647	60.97349167	121.5175705	1.0
81	0	-3.729400158	0	69.84781647	60.97349167	121.5175705	1.0
82	0	-3.729400158	0	69.84781647	60.97349167	121.5175705	1.0
83	0	-3.729400158	0	69.84781647	60.97349167	121.5175705	1.0
[RightToeBase]
77	0	-0.5911099911	1.364109993	0	0	0	1.0
78	0	-0.5911099911	1.364109993	0	0	0	1.0
79	0	-0.5911099911	1.364109993	0	0	0	1.0
80	0	-0.5911099911	1.364109993	0	0	0	1.0
81	0	-0.5911099911	1.364109993	0	0	0	1.0
82	0	-0.5911099911	1.364109993	0	0	0	1.0
83	0	-0.5911099911	1.364109993	0	0	0	1.0
[EndOfFile]
